<?xml version="1.0" encoding="utf-8"?>
<!-- Generator: Adobe Illustrator 21.0.0, SVG Export Plug-In . SVG Version: 6.00 Build 0)  -->
<svg version="1.1" id="Layer_1" xmlns="http://www.w3.org/2000/svg" xmlns:xlink="http://www.w3.org/1999/xlink" x="0px" y="0px"
	 viewBox="0 0 74.5 90" style="enable-background:new 0 0 74.5 90;" xml:space="preserve">
<style type="text/css">
	.st0{fill:#e2d348;}
	.st1{fill:#fcfc97;}
	.st3{fill:#2c5900;}
</style>
<g>
	<path class="st0" d="M54.2,0L51,5.2h-7h-7L33.7,0C-0.5,73.7,20.2,90,20.2,90H44h23.8C67.7,90,88.5,73.7,54.2,0z"/>
	<path class="st0" d="M4.6,82.8h14.8c2,0,3.6,1.6,3.6,3.6v0c0,2-1.6,3.6-3.6,3.6H4.6c-2,0-3.6-1.6-3.6-3.6v0
		C1,84.4,2.6,82.8,4.6,82.8z"/>
	<circle class="st3" cx="44" cy="22.2" r="2.6"/>
	<g>
		<g>
			<polygon class="st3" points="41.3,22.5 18.8,16.8 19,16.3 41.4,22 			"/>
		</g>
		<g>
			<rect class="st3" x="29.5" y="8.6" transform="matrix(0.1332 -0.9911 0.9911 0.1332 4.7139 47.95)" width="0.5" height="25.4"/>
		</g>
		<g>
			<polygon class="st3" points="17.9,24.4 17.9,23.9 42.3,22.6 42.4,23.1 			"/>
		</g>
	</g>
	<g>
		<g>
			<polygon class="st3" points="46.5,22.5 46.4,22 68.8,16.3 69,16.8 			"/>
		</g>
		<g>
			<rect class="st3" x="45.3" y="21" transform="matrix(0.9911 -0.1329 0.1329 0.9911 -2.3138 7.9019)" width="25.4" height="0.5"/>
		</g>
		<g>
			<polygon class="st3" points="69.9,24.4 45.4,23.1 45.5,22.6 69.9,23.9 			"/>
		</g>
	</g>
	<g>
		<g>
			<g>
				<path class="st3" d="M44,24.6c-0.2,1.6,0.1,3.4,1.8,4.1c1.3,0.5,2.9-0.4,2.7-1.9c0-0.3-0.5-0.3-0.5,0c0.2,1.6-1.7,1.9-2.7,1
					c-0.9-0.8-0.9-2.1-0.8-3.2C44.6,24.3,44.1,24.3,44,24.6L44,24.6z"/>
			</g>
		</g>
		<g>
			<g>
				<path class="st3" d="M43.4,24.6c0.4,1,0.6,2.3,0,3.3c-0.6,1.1-2.7,1.5-2.9-0.2c0-0.3-0.5-0.3-0.5,0c0.1,1.4,1.7,2.1,2.8,1.4
					c1.7-1,1.5-3.1,1-4.6C43.8,24.1,43.3,24.3,43.4,24.6L43.4,24.6z"/>
			</g>
		</g>
	</g>
	<g>
		<g>
			<path class="st3" d="M36.3,17.2c0.5-2.2,3.4-2.1,3.8,0.1c0,0.3,0.5,0.2,0.5-0.1c-0.4-2.7-4.2-2.8-4.7-0.1C35.8,17.4,36.3,17.6,36.3,17.2
				L36.3,17.2z"/>
		</g>
	</g>
	<g>
		<g>
			<path class="st3" d="M47.3,17.2c0.5-2.2,3.4-2.1,3.8,0.1c0,0.3,0.5,0.2,0.5-0.1c-0.4-2.7-4.2-2.8-4.7-0.1C46.8,17.4,47.3,17.6,47.3,17.2
				L47.3,17.2z"/>
		</g>
	</g>
	<path class="st1" d="M44,41.2c-7.6,0-13.7,12.8-13.7,20.4S31.6,78.2,44,78.2c11.5,0,13.7-9.1,13.7-16.6S51.5,41.2,44,41.2z"/>
</g>
</svg>
