<?xml version="1.0" encoding="utf-8"?>
<!-- Generator: Adobe Illustrator 23.0.1, SVG Export Plug-In . SVG Version: 6.00 Build 0)  -->
<svg version="1.1" id="Layer_1" xmlns="http://www.w3.org/2000/svg" xmlns:xlink="http://www.w3.org/1999/xlink" x="0px" y="0px"
	 viewBox="0 0 300 200" style="enable-background:new 0 0 300 200;" xml:space="preserve">
<style type="text/css">
	.st0{fill:#E2D348;}
	.st1{fill:#2C5900;}
	.st2{fill:#FCFC97;}
	.st3{fill:#B7311F;}
</style>
<g>
	<path class="st0" d="M228.3,26l-5.3,8.6h-11.6h-11.6l-5.5-8.6c-56.7,122.2-22.4,149.2-22.4,149.2h39.5h39.5
		C250.7,175.2,285.2,148.2,228.3,26z"/>
	<path class="st0" d="M146,163.3h24.5c3.3,0,6,2.7,6,6l0,0c0,3.3-2.7,6-6,6H146c-3.3,0-6-2.7-6-6l0,0
		C140.1,166,142.7,163.3,146,163.3z"/>
	<circle class="st1" cx="211.4" cy="62.8" r="4.3"/>
	<g>
		<g>
			<polygon class="st1" points="206.9,63.3 169.6,53.9 169.9,53 207.1,62.5 			"/>
		</g>
		<g>
			
				<rect x="187.4" y="40.3" transform="matrix(0.1332 -0.9911 0.9911 0.1332 102.018 239.2952)" class="st1" width="0.8" height="42.1"/>
		</g>
		<g>
			<polygon class="st1" points="168.1,66.5 168.1,65.6 208.6,63.5 208.7,64.3 			"/>
		</g>
	</g>
	<g>
		<g>
			<polygon class="st1" points="215.5,63.3 215.4,62.5 252.5,53 252.8,53.9 			"/>
		</g>
		<g>
			
				<rect x="213.5" y="60.8" transform="matrix(0.9911 -0.1329 0.1329 0.9911 -6.0588 31.7209)" class="st1" width="42.1" height="0.8"/>
		</g>
		<g>
			<polygon class="st1" points="254.3,66.5 213.7,64.3 213.9,63.5 254.3,65.6 			"/>
		</g>
	</g>
	<g>
		<g>
			<g>
				<path class="st1" d="M211.4,66.8c-0.3,2.7,0.2,5.6,3,6.8c2.2,0.8,4.8-0.7,4.5-3.2c0-0.5-0.8-0.5-0.8,0c0.3,2.7-2.8,3.2-4.5,1.7
					c-1.5-1.3-1.5-3.5-1.3-5.3C212.4,66.3,211.5,66.3,211.4,66.8L211.4,66.8z"/>
			</g>
		</g>
		<g>
			<g>
				<path class="st1" d="M210.4,66.8c0.7,1.7,1,3.8,0,5.5c-1,1.8-4.5,2.5-4.8-0.3c0-0.5-0.8-0.5-0.8,0c0.2,2.3,2.8,3.5,4.6,2.3
					c2.8-1.7,2.5-5.1,1.7-7.6C211,66,210.2,66.3,210.4,66.8L210.4,66.8z"/>
			</g>
		</g>
	</g>
	<g>
		<g>
			<path class="st1" d="M198.6,54.5c0.8-3.6,5.6-3.5,6.3,0.2c0,0.5,0.8,0.3,0.8-0.2c-0.7-4.5-7-4.6-7.8-0.2
				C197.8,54.9,198.6,55.2,198.6,54.5L198.6,54.5z"/>
		</g>
	</g>
	<g>
		<g>
			<path class="st1" d="M216.9,54.5c0.8-3.6,5.6-3.5,6.3,0.2c0,0.5,0.8,0.3,0.8-0.2c-0.7-4.5-7-4.6-7.8-0.2
				C216,54.9,216.9,55.2,216.9,54.5L216.9,54.5z"/>
		</g>
	</g>
	<path class="st2" d="M211.4,94.3c-12.6,0-22.7,21.2-22.7,33.8c0,12.6,2.2,27.5,22.7,27.5c19.1,0,22.7-15.1,22.7-27.5
		C234.1,115.7,223.8,94.3,211.4,94.3z"/>
</g>
<g>
	<path class="st1" d="M98.9,162c0,0.6-0.4,1.4-1.2,2.4c-7,8.4-16.4,12.5-28,12.5c-11.9,0-21.6-4.1-29-12.2
		c-7.2-7.9-10.8-17.8-10.8-29.8c0-11.6,3.5-21.5,10.6-29.6c7.4-8.5,16.7-12.7,28.1-12.7c12.4,0,22.1,3.8,29.1,11.4
		c0.8,0.8,1.1,1.6,1.1,2.2c0,0.7-1.3,3.4-4,8.1c-2.7,4.7-4.3,7.3-5,7.8c-0.3,0.3-0.7,0.5-1.1,0.5c-0.2,0-1.1-0.8-2.9-2.3
		c-2.1-1.8-4.1-3.3-6.1-4.3c-3-1.5-6.1-2.3-9.4-2.3c-5.6,0-10.1,2.1-13.5,6.3c-3.1,3.9-4.6,8.7-4.6,14.4c0,5.8,1.5,10.7,4.6,14.6
		c3.4,4.3,7.8,6.4,13.5,6.4c3.3,0,6.5-0.7,9.5-2.2c1.9-1,3.9-2.3,6-4c1.7-1.5,2.6-2.2,2.8-2.2c0.4,0,0.8,0.2,1.1,0.6
		c0.6,0.7,2.3,3.1,5,7.2C97.5,159.3,98.9,161.6,98.9,162z"/>
	<path class="st1" d="M162.3,146.3c0,2.9,0.2,7.3,0.5,13.1c0.3,5.8,0.5,10.2,0.5,13.1c0,1.5-0.7,2.3-2,2.5
		c-4.7,0.3-10.2,0.5-16.3,0.5c-0.7,0-1.2-1.1-1.5-3.3c-0.2-2.2-0.5-3.3-0.9-3.4c-0.3,0.2-0.7,0.5-1.2,1c-4.3,4.3-8.9,6.5-13.8,6.5
		c-7.4,0-13.6-2.9-18.5-8.8c-4.6-5.5-6.9-12.1-6.9-19.7c0-8.8,2.4-15.9,7.2-21.3c5-5.6,11.8-8.4,20.4-8.4c6,0,10.7,2.1,14.2,6.3
		c0.2,0.2,0.3,0.3,0.4,0.3c0.3,0,0.7-0.9,1.2-2.8c0.4-1.9,1-2.8,1.6-2.8c1.4,0,4.1,0.4,8.1,1.2c3.8,0.8,6.5,1.4,8.1,1.9
		c0.6,0.2,0.9,0.5,0.9,0.9c0,0.2-0.1,0.6-0.2,1.2C162.9,131.3,162.3,138.6,162.3,146.3z M143.8,146.7c0-3.2-1-5.9-3.1-8
		s-4.7-3.2-8-3.2s-5.9,1.1-8,3.2c-2,2.1-3,4.8-3,8.1c0,3.1,1.1,5.7,3.2,8c2.1,2.2,4.7,3.3,7.8,3.3c3.2,0,5.9-1.1,8-3.2
		S143.8,150,143.8,146.7z"/>
	<path class="st1" d="M212,158.2c0,1.1-0.1,2.9-0.4,5.2c-0.3,2.3-0.4,4-0.4,5.1s-0.1,1.8-0.3,2.1c-0.2,0.3-0.9,0.7-1.9,1.3
		c-4.9,2.7-10.4,4.1-16.4,4.1c-11,0-16.6-4.2-16.6-12.7c0-2.5,0.1-6.3,0.3-11.4c0.2-5.1,0.3-8.9,0.3-11.4c0-1.7-1-2.5-2.9-2.5
		c-0.2,0-0.4,0-0.7,0c-0.3,0-0.6,0.1-0.7,0.1c-1.5,0-2.2-0.5-2.2-1.5c0-0.6,0-1.5,0.1-2.8c0.1-1.3,0.1-2.2,0.1-2.8
		c0-0.8,0-2-0.1-3.7c-0.1-1.6-0.1-2.9-0.1-3.7c0-0.8,1.2-1.2,3.7-1.3c1.4,0,2.1-0.4,2.2-1.1c0.2-1.5,0.3-3.7,0.2-6.9
		c-0.2-4.9-0.2-7.3-0.2-7c0-4.4,0.4-6.6,1.3-6.6c1,0,2.5,0.2,4.4,0.7c2.2,0.5,3.7,0.8,4.5,0.9c1.9,0.3,4.9,0.6,8.8,1.1
		c1,0.1,1.4,0.4,1.4,1c0,1.5-0.1,3.8-0.4,6.9c-0.2,3.1-0.4,5.4-0.4,7c0,1.9,0.6,2.8,1.7,2.8c1.3,0,3.4-0.1,6.1-0.2s4.8-0.2,6.1-0.2
		c0.8,0,1.3,0.3,1.3,0.9c0,0.9-0.1,2.2-0.3,4c-0.2,1.8-0.3,3.1-0.3,4c0,0.9,0,2.3,0.1,4s0.1,3.1,0.1,4c0,0.8-0.6,1.2-1.7,1.2
		c-0.8,0-2,0-3.8-0.1c-1.8-0.1-3.1-0.1-3.8-0.1h-4.3c-0.6,0-0.9,0.8-0.9,2.5c0,0.9,0,2.3,0,4.1c0,1.8,0.1,3.2,0.1,4.1
		c0,3.2,0.4,5.4,1.1,6.6c1,1.6,3.1,2.5,6.1,2.5c1,0,2.3-0.2,4.1-0.7c1.8-0.4,3-0.7,3.8-0.7C211.6,156.9,212,157.4,212,158.2z"/>
</g>
<g>
	<path class="st3" d="M220.1,121l45.1-2l-24.3,45l26.2-4.9l-1,15.6l-49.4,1l23.1-42l-19.7,2.9C220.1,136.4,220.1,121,220.1,121z"/>
</g>
</svg>
